<?xml version="1.0" encoding="utf-8"?>
<!-- Generator: Adobe Illustrator 25.2.1, SVG Export Plug-In . SVG Version: 6.00 Build 0)  -->
<svg version="1.1" id="Слой_1" xmlns="http://www.w3.org/2000/svg" xmlns:xlink="http://www.w3.org/1999/xlink" x="0px" y="0px"
	 viewBox="0 0 127.48 66.75" style="enable-background:new 0 0 127.48 66.75;" xml:space="preserve" fill="#fff">
<g>
	<path d="M48.8,36.62l0.39,0.49c-2.43,1.68-4.24,3.1-5.4,4.27c-1.17,1.17-2.69,3.18-4.56,6.04c-2.2,3.19-4.21,5.81-6.02,7.87
		c-1.81,2.06-4.29,3.85-7.45,5.38s-6.92,2.29-11.3,2.29c-3.35,0-6.01-0.62-7.97-1.85c-1.96-1.23-2.94-2.87-2.94-4.91
		c0-1.09,0.27-1.98,0.81-2.69c0.54-0.71,1.24-1.06,2.1-1.06c0.53,0,0.98,0.16,1.36,0.47c0.38,0.31,0.57,0.73,0.57,1.26
		c0,0.39-0.19,0.75-0.57,1.06c-0.38,0.31-0.76,0.47-1.16,0.47c-0.63,0-1.23-0.51-1.83-1.53c-0.33,0.69-0.49,1.4-0.49,2.12
		c0,1.81,0.92,3.26,2.76,4.34c1.84,1.08,4.26,1.63,7.25,1.63c4.24,0,7.48-0.73,9.72-2.2c2.24-1.46,4.49-3.59,6.76-6.39
		c1.25-1.55,2.61-3.16,4.1-4.84c1.48-1.68,2.57-2.89,3.26-3.65c-2.47,1.61-4.87,2.9-7.2,3.87c-2.34,0.97-4.82,1.46-7.45,1.46
		c-2.53,0-4.55-0.66-6.04-1.97c-1.5-1.32-2.25-3.08-2.25-5.28c0-2.24,0.77-4.9,2.32-7.99h-0.49c-6.35,0-10.44-1.26-12.29-3.77
		C2.95,29,2.03,26.59,2.03,24.28c0-2.33,0.74-4.59,2.22-6.76c1.48-2.17,3.5-4.09,6.07-5.75c2.57-1.66,5.54-2.97,8.93-3.92
		c3.39-0.95,6.97-1.43,10.76-1.43c1.97,0,3.86,0.13,5.67,0.4l-0.1,0.59c-1.91-0.2-3.73-0.3-5.48-0.3c-3.68,0-7.15,0.47-10.41,1.41
		c-3.26,0.94-6.14,2.24-8.66,3.9c-2.52,1.66-4.48,3.57-5.9,5.72c-1.41,2.15-2.12,4.4-2.12,6.73c0,2.86,0.88,5.02,2.64,6.49
		c1.76,1.46,3.63,2.36,5.6,2.69c1.97,0.33,4.18,0.54,6.61,0.64c0.59-0.79,1.32-1.8,2.2-3.03c0.87-1.23,1.85-2.43,2.94-3.58
		c1.09-1.15,2.25-2.29,3.48-3.4c1.23-1.12,2.75-2.34,4.56-3.65c4.34-3.16,8.08-5.72,11.23-7.7c3.14-1.97,6.38-3.62,9.72-4.93
		c3.34-1.31,6.55-1.97,9.65-1.97c2.89,0,4.34,0.97,4.34,2.91c0,2.17-1.37,4.61-4.12,7.3c-2.75,2.7-6.3,5.26-10.66,7.7
		c-4.36,2.43-9.1,4.59-14.23,6.46s-10,3.21-14.6,4c-1.78,2.73-3.02,4.9-3.73,6.51c-0.71,1.61-1.06,3.01-1.06,4.19
		c0,1.28,0.55,2.33,1.65,3.13c1.1,0.81,2.54,1.21,4.32,1.21c2.73,0,5.44-0.62,8.12-1.88c2.68-1.25,5.4-2.87,8.17-4.86
		C42.59,41.12,45.58,38.96,48.8,36.62z M22.75,34.1c5.82-0.99,12.07-2.92,18.75-5.8c6.68-2.88,12.31-6.08,16.9-9.6
		c4.59-3.52,6.88-6.61,6.88-9.28c0-1.55-1.22-2.32-3.65-2.32c-2.76,0-5.82,0.7-9.18,2.1c-3.35,1.4-6.8,3.39-10.34,5.97
		c-3.54,2.58-6.95,5.48-10.24,8.71C28.59,27.11,25.55,30.52,22.75,34.1z"/>
</g>
<g>
	<path d="M52.22,31.07v-0.39c1.03-1.04,2.46-2.13,4.3-3.26h1.96l-5.21,6.22c-0.87,1.04-1.31,1.65-1.31,1.81s0.13,0.24,0.4,0.24
		c0.86,0,2.26-0.8,4.21-2.39c1.95-1.59,4.11-3.55,6.47-5.89h1.85l-5.45,6.51c-0.06,0.08-0.19,0.24-0.39,0.47
		c-0.2,0.23-0.34,0.44-0.44,0.62c-0.1,0.19-0.14,0.35-0.13,0.48c0,0.16,0.12,0.24,0.37,0.24c0.58,0,1.66-0.54,3.25-1.63
		c1.59-1.09,3.14-2.44,4.65-4.05v0.42c-1.54,1.62-3.08,2.96-4.62,4.02c-1.54,1.06-2.66,1.59-3.38,1.59c-0.55,0-0.82-0.29-0.82-0.86
		c0-0.54,0.24-1.22,0.71-2.03c0.48-0.82,1.21-1.86,2.21-3.13l0.44-0.54l-0.86,0.81c-1.89,1.76-3.51,3.16-4.87,4.2
		c-1.36,1.04-2.43,1.55-3.21,1.55c-0.58,0-0.86-0.35-0.86-1.05c0-0.46,0.13-0.96,0.39-1.51c0.26-0.55,0.6-1.11,1.03-1.7
		c0.43-0.59,0.88-1.16,1.37-1.73c0.48-0.56,0.97-1.14,1.47-1.73l-1.19,0.73C53.48,29.95,52.7,30.6,52.22,31.07z"/>
	<path d="M80.87,15.79l1.17-1.32h1.8L69.11,31.73c-1.76,2.02-2.64,3.21-2.64,3.55c0,0.31,0.16,0.46,0.47,0.46
		c0.55,0,1.17-0.24,1.87-0.72c0.7-0.48,1.65-1.29,2.84-2.41c1.19-1.13,2.07-1.94,2.63-2.45v0.42c-2.12,2.04-3.67,3.47-4.65,4.29
		c-0.98,0.82-1.88,1.22-2.69,1.22c-0.28,0-0.52-0.11-0.71-0.33c-0.19-0.22-0.29-0.48-0.29-0.77c0-0.83,0.39-1.8,1.17-2.91
		c0.78-1.11,1.83-2.41,3.16-3.89c0.09-0.13,0.37-0.48,0.84-1.04c0.47-0.56,0.92-1.12,1.36-1.68c-1.08,0.85-3.15,2.7-6.22,5.56v-0.39
		l6.64-6.02C73.69,23.89,76.35,20.95,80.87,15.79z"/>
	<path d="M73.65,30.68l4.88-4.41c0.37-0.47,0.72-0.91,1.03-1.31c0.31-0.4,0.54-0.6,0.68-0.6c0.12,0,0.24,0.04,0.34,0.11
		c0.1,0.07,0.15,0.18,0.15,0.33c0,0.31-0.43,0.69-1.28,1.15c0.5,0.78,0.86,1.47,1.07,2.06c0.22,0.59,0.35,1.33,0.4,2.23
		c-0.05,0.56-0.11,1.02-0.19,1.4c0.56,0.15,1.07,0.13,1.53-0.04s1.09-0.68,1.9-1.53v0.42c-0.62,0.82-1.2,1.32-1.73,1.52
		c-0.53,0.2-1.15,0.19-1.85-0.02c-0.37,0.88-0.98,1.64-1.82,2.26c-0.84,0.63-1.71,1.09-2.59,1.4c-0.89,0.3-1.65,0.45-2.29,0.45
		c-0.61,0-1.1-0.13-1.48-0.38c-0.38-0.25-0.57-0.61-0.57-1.06c0-0.41,0.11-0.74,0.34-0.99c0.23-0.25,0.56-0.38,0.99-0.38
		c0.28,0,0.51,0.08,0.69,0.23c0.18,0.16,0.27,0.36,0.27,0.62c0,0.21-0.1,0.4-0.29,0.56c-0.19,0.16-0.4,0.25-0.62,0.25
		c-0.3,0-0.51-0.25-0.65-0.76c-0.2,0.15-0.3,0.37-0.3,0.66c0,0.18,0.16,0.38,0.48,0.59c0.32,0.21,0.69,0.32,1.11,0.32
		c0.83,0,1.7-0.37,2.62-1.11s1.69-1.68,2.3-2.8c0.62-1.13,0.92-2.21,0.92-3.26c0-0.75-0.23-1.52-0.68-2.3l-5.35,4.8V30.68z"/>
	<path d="M100.2,14.47h1.92L86.57,32.93c1.48-1.31,3.14-2.58,4.97-3.83c1.83-1.25,3.06-1.87,3.68-1.87c0.7,0,1.05,0.4,1.05,1.2
		c0,0.93-0.29,1.75-0.87,2.47c-0.58,0.72-1.36,1.46-2.34,2.23c-1.21,0.93-1.82,1.63-1.82,2.11c0,0.34,0.2,0.51,0.58,0.51
		c0.75,0,1.75-0.46,3.01-1.4s2.86-2.33,4.79-4.19v0.42l-0.68,0.64c-1.56,1.5-2.96,2.69-4.2,3.56c-1.24,0.87-2.22,1.31-2.93,1.31
		c-0.7,0-1.05-0.35-1.05-1.05c0-1.34,0.69-2.63,2.06-3.87c1.04-0.96,1.76-1.66,2.15-2.08c0.39-0.42,0.58-0.8,0.58-1.13
		c0-0.08-0.04-0.17-0.13-0.26s-0.19-0.13-0.32-0.13c-0.61,0-2.31,1.05-5.12,3.16c-2.31,1.75-4.32,3.53-6.03,5.36h-2.01L94.38,21.3
		l-10.77,9.77v-0.39l6.68-6.17c1.88-1.71,3.33-3.04,4.32-3.99c1-0.95,1.88-1.84,2.66-2.69C98.06,16.98,99.03,15.86,100.2,14.47z"/>
	<path d="M112.09,30.58l-1.19,1.05c-1.87,1.63-3.25,2.78-4.15,3.45c-0.9,0.67-1.69,1-2.37,1c-0.45,0-0.68-0.27-0.68-0.81
		c0-0.57,0.21-1.37,0.63-2.4c-2.23,2.14-3.87,3.21-4.93,3.21c-0.47,0-0.85-0.19-1.15-0.58c-0.3-0.38-0.44-0.94-0.44-1.68
		c0-0.83,0.23-1.65,0.7-2.46c0.47-0.81,1.09-1.52,1.88-2.14c0.79-0.62,1.67-1.11,2.64-1.47c0.97-0.36,1.92-0.54,2.84-0.54
		c0.45,0,0.78,0.09,0.99,0.26s0.32,0.45,0.34,0.84c-0.02,0.08-0.03,0.16-0.04,0.23c-0.01,0.07-0.02,0.18-0.05,0.31
		s-0.04,0.24-0.06,0.32l1.47-1.81l1.96-0.15l-0.61,0.78c-0.5,0.62-0.9,1.13-1.21,1.53c-0.31,0.4-0.58,0.73-0.79,0.99
		c-2.43,2.76-3.65,4.38-3.65,4.85c0,0.25,0.11,0.37,0.33,0.37c0.3,0,0.74-0.18,1.33-0.55c0.59-0.37,1.26-0.85,2-1.46
		c0.74-0.6,1.58-1.32,2.54-2.14c0.95-0.82,1.5-1.3,1.66-1.43V30.58z M105.92,27.57c-0.94,0-1.97,0.48-3.12,1.44
		s-2.14,2.06-2.99,3.28c-0.85,1.22-1.27,2.09-1.27,2.6c0,0.25,0.08,0.45,0.23,0.61c0.16,0.16,0.35,0.24,0.58,0.24
		c0.64,0,1.56-0.46,2.76-1.4c1.2-0.93,2.28-1.98,3.25-3.16s1.45-2.1,1.45-2.77C106.81,27.86,106.52,27.57,105.92,27.57z"/>
	<path d="M119.5,23.8l3.88-4.6h2.01l-3.88,4.6h2.97l-0.26,0.42h-3.02l-5.68,6.76c-0.62,0.72-1.31,1.58-2.07,2.6
		c-0.76,1.01-1.13,1.57-1.13,1.67c0,0.34,0.17,0.51,0.51,0.51c1.28,0,4.02-1.89,8.23-5.68v0.42l-1.24,1.15
		c-3.22,2.97-5.57,4.46-7.03,4.46c-0.36,0-0.64-0.11-0.84-0.32c-0.2-0.21-0.3-0.46-0.3-0.73c0-0.65,0.44-1.74,1.32-3.26
		c0.88-1.52,2.61-3.62,5.18-6.32c-1.59,1.11-3.8,2.98-6.64,5.61v-0.39c0.95-0.95,2.13-2.02,3.53-3.22c1.4-1.2,2.77-2.28,4.11-3.24
		h-1.71l0.33-0.42H119.5z"/>
</g>
</svg>
